<mxfile host="app.diagrams.net" agent="Mozilla/5.0 (Windows NT 10.0; Win64; x64) AppleWebKit/537.36 (KHTML, like Gecko) Chrome/133.0.0.0 Safari/537.36 Edg/133.0.0.0" version="26.0.11">
  <diagram name="第 1 页" id="eySofgF7ZOKyRylWsDeY">
    <mxGraphModel dx="663" dy="513" grid="1" gridSize="10" guides="1" tooltips="1" connect="1" arrows="1" fold="1" page="1" pageScale="1" pageWidth="827" pageHeight="1169" math="0" shadow="0">
      <root>
        <mxCell id="0" />
        <mxCell id="1" parent="0" />
        <mxCell id="FPdoyIAYC0Cnsp7iroEr-6" style="rounded=0;orthogonalLoop=1;jettySize=auto;html=1;entryX=0;entryY=0.5;entryDx=0;entryDy=0;" edge="1" parent="1" source="FPdoyIAYC0Cnsp7iroEr-1" target="FPdoyIAYC0Cnsp7iroEr-2">
          <mxGeometry relative="1" as="geometry" />
        </mxCell>
        <mxCell id="FPdoyIAYC0Cnsp7iroEr-7" style="rounded=0;orthogonalLoop=1;jettySize=auto;html=1;exitX=1;exitY=0.3333333333333333;exitDx=0;exitDy=0;exitPerimeter=0;entryX=0;entryY=0.5;entryDx=0;entryDy=0;" edge="1" parent="1" source="FPdoyIAYC0Cnsp7iroEr-1" target="FPdoyIAYC0Cnsp7iroEr-3">
          <mxGeometry relative="1" as="geometry" />
        </mxCell>
        <mxCell id="FPdoyIAYC0Cnsp7iroEr-8" style="rounded=0;orthogonalLoop=1;jettySize=auto;html=1;entryX=0;entryY=0.5;entryDx=0;entryDy=0;" edge="1" parent="1" target="FPdoyIAYC0Cnsp7iroEr-4">
          <mxGeometry relative="1" as="geometry">
            <mxPoint x="160" y="357" as="sourcePoint" />
          </mxGeometry>
        </mxCell>
        <mxCell id="FPdoyIAYC0Cnsp7iroEr-9" style="rounded=0;orthogonalLoop=1;jettySize=auto;html=1;exitX=1;exitY=0.3333333333333333;exitDx=0;exitDy=0;exitPerimeter=0;entryX=0;entryY=0.5;entryDx=0;entryDy=0;" edge="1" parent="1" source="FPdoyIAYC0Cnsp7iroEr-1" target="FPdoyIAYC0Cnsp7iroEr-5">
          <mxGeometry relative="1" as="geometry" />
        </mxCell>
        <mxCell id="FPdoyIAYC0Cnsp7iroEr-1" value="用户" style="shape=umlActor;verticalLabelPosition=bottom;verticalAlign=top;html=1;outlineConnect=0;" vertex="1" parent="1">
          <mxGeometry x="110" y="320" width="50" height="110" as="geometry" />
        </mxCell>
        <mxCell id="FPdoyIAYC0Cnsp7iroEr-2" value="注册" style="ellipse;whiteSpace=wrap;html=1;" vertex="1" parent="1">
          <mxGeometry x="270" y="250" width="100" height="60" as="geometry" />
        </mxCell>
        <mxCell id="FPdoyIAYC0Cnsp7iroEr-3" value="登录" style="ellipse;whiteSpace=wrap;html=1;" vertex="1" parent="1">
          <mxGeometry x="270" y="320" width="100" height="60" as="geometry" />
        </mxCell>
        <mxCell id="FPdoyIAYC0Cnsp7iroEr-4" value="个人资料管理" style="ellipse;whiteSpace=wrap;html=1;" vertex="1" parent="1">
          <mxGeometry x="270" y="390" width="100" height="60" as="geometry" />
        </mxCell>
        <mxCell id="FPdoyIAYC0Cnsp7iroEr-5" value="个人简历管理" style="ellipse;whiteSpace=wrap;html=1;" vertex="1" parent="1">
          <mxGeometry x="270" y="460" width="100" height="60" as="geometry" />
        </mxCell>
      </root>
    </mxGraphModel>
  </diagram>
</mxfile>
